<?xml version="1.0" encoding="UTF-8"?>
<!-- Generator: Adobe Illustrator 25.2.3, SVG Export Plug-In . SVG Version: 6.00 Build 0)  -->
<svg xmlns="http://www.w3.org/2000/svg" xmlns:xlink="http://www.w3.org/1999/xlink" version="1.1" id="Capa_1" x="0px" y="0px" viewBox="0 0 512 512" style="enable-background:new 0 0 512 512;" xml:space="preserve" width="512" height="512">
<g>
	<g>
		<g>
			<path style="fill:#009F99;" d="M132.413,185.408c0,0,235.562-5.582,238.506,1.395c2.945,6.977,7.361,64.187-1.472,66.978     c-8.834,2.791-241.67,5.473-241.67-1.504S124.67,185.408,132.413,185.408z"/>
		</g>
		<g>
			<g>
				<path style="fill:#FFFFFF;" d="M145.323,197.116c0,0,210.314-3.334,212.943,0.834c2.629,4.168,6.572,38.342-1.314,40.009      s-215.572,2.501-215.572-1.667C141.379,232.123,138.75,196.282,145.323,197.116z"/>
			</g>
			<g>
				<path style="fill:#241726;" d="M257.838,240.425c-31.141,0-59.374-0.239-79.497-0.678c-38.063-0.826-38.063-1.928-38.063-3.456      c0-0.585-0.053-1.801-0.125-3.456c-0.671-15.582-0.863-32.028,2.81-35.863c0.939-0.979,1.804-1.037,2.497-0.951      c0.64-0.022,80.185-1.27,141.358-1.27c70.732,0,71.723,1.571,72.378,2.61c2.391,3.79,5.564,28.839,1.704,37.974      c-0.897,2.124-2.149,3.368-3.722,3.701C353.117,239.896,302.451,240.425,257.838,240.425z M142.471,235.682      c5.311,1.547,50.046,2.539,115.367,2.539c50.158,0,95.443-0.613,98.885-1.341c0.825-0.174,1.548-0.983,2.149-2.404      c3.458-8.186,0.598-31.888-1.434-35.757c-1.803-0.684-13.69-1.765-70.619-1.765c-61.156,0-140.683,1.248-141.479,1.261l0,0      c-0.008,0-0.235-0.015-0.24-0.015c-0.072,0-0.261,0-0.544,0.295c-3.517,3.673-2.525,26.682-2.2,34.244      C142.409,233.991,142.452,234.998,142.471,235.682z"/>
			</g>
		</g>
		<g>
			<path style="fill:#241726;" d="M360.588,211.335c-0.072,0-0.144-0.006-0.217-0.022c-10.786-2.156-213.69-2.182-215.739-2.182     c-0.609,0-1.102-0.493-1.102-1.102s0.493-1.102,1.102-1.102c8.372,0,205.172,0.026,216.171,2.225     c0.596,0.118,0.983,0.699,0.864,1.295C361.563,210.973,361.103,211.335,360.588,211.335z"/>
		</g>
		<g>
			<path style="fill:#241726;" d="M360.54,225.837c-0.008,0-0.015,0-0.023,0c-53.91-1.089-216.511-2.737-218.147-2.755     c-0.609-0.006-1.098-0.504-1.091-1.113c0.006-0.605,0.498-1.091,1.102-1.091c0.003,0,0.008,0,0.011,0     c1.637,0.017,164.248,1.666,218.17,2.755c0.608,0.013,1.091,0.516,1.079,1.123C361.63,225.359,361.138,225.837,360.54,225.837z"/>
		</g>
	</g>
	<g>
		<g>
			<path style="fill:#FCCE5A;" d="M119.163,252.143c0,0,235.562-4.939,238.506,1.235c2.945,6.174,7.432,59.214-1.401,61.683     c-8.834,2.47-241.522,1.294-241.522-4.88S111.102,252.143,119.163,252.143z"/>
		</g>
		<g>
			<path style="fill:#241726;" d="M334.855,312.512c-0.609,0-1.102-0.493-1.102-1.102c0-10.867-2.18-57.507-2.203-57.976     c-0.028-0.607,0.441-1.123,1.049-1.151c0.614-0.06,1.124,0.441,1.152,1.048c0.022,0.471,2.205,47.163,2.205,58.08     C335.957,312.019,335.464,312.512,334.855,312.512z"/>
		</g>
		<g>
			<path style="fill:#241726;" d="M315.756,311.778c-0.609,0-1.102-0.493-1.102-1.102c0-10.867-2.18-57.507-2.203-57.976     c-0.028-0.607,0.441-1.123,1.049-1.151c0.617-0.041,1.124,0.441,1.152,1.048c0.022,0.471,2.205,47.163,2.205,58.08     C316.858,311.285,316.365,311.778,315.756,311.778z"/>
		</g>
		<g>
			<path style="fill:#241726;" d="M164.441,312.512c-0.609,0-1.102-0.493-1.102-1.102c0-10.867-2.18-57.507-2.203-57.976     c-0.028-0.607,0.441-1.123,1.049-1.151c0.623-0.06,1.124,0.441,1.152,1.048c0.022,0.471,2.205,47.163,2.205,58.08     C165.543,312.019,165.05,312.512,164.441,312.512z"/>
		</g>
		<g>
			<path style="fill:#241726;" d="M145.344,313.082c-0.609,0-1.102-0.493-1.102-1.102c0-10.867-2.18-57.507-2.203-57.976     c-0.028-0.607,0.441-1.123,1.049-1.151c0.623-0.041,1.124,0.441,1.152,1.048c0.022,0.471,2.205,47.163,2.205,58.08     C146.445,312.589,145.953,313.082,145.344,313.082z"/>
		</g>
		<g>
			<path style="fill:#241726;" d="M226.5,303.56c-38.256,0-39.016-1.141-39.47-1.821c-1.781-2.673-5.485-28.821-1.331-32.977     c0.197-0.196,0.461-0.312,0.738-0.323c0.592-0.022,59.443-2.171,87.429-2.171c14.466,0,15.011,0.544,15.492,1.026     c2.816,2.815,0.785,31.888,0.267,33.446c-0.317,0.951-0.547,1.638-21.633,2.266C256.388,303.353,240.876,303.56,226.5,303.56z      M188.751,300.295c2.07,0.538,14.293,1.061,37.749,1.061c29.467,0,57.266-0.798,61.134-1.732     c0.769-4.08,1.661-27.823,0.218-30.67c-0.705-0.174-3.446-0.482-13.987-0.482c-26.571,0-81.045,1.943-86.848,2.152     C184.482,274.616,187.392,297.141,188.751,300.295z"/>
		</g>
	</g>
	<g>
		<path style="fill:#241726;" d="M21.515,254.848c-0.809,0-1.574,0-3.69-8.421c-7.132-1.375-7.737-2.186-7.97-2.498    c-0.204-0.273-0.293-0.777-0.199-1.106c0.13-0.461,0.431-1.526,8.584-4.812c2.929-7.637,3.927-7.637,4.593-7.637    c0.348,0,0.824,0.247,1.032,0.527c0.526,0.708,1.002,2.537,1.722,5.464c0.224,0.912,0.494,2.01,0.651,2.498    c0.43,0.192,1.369,0.527,2.148,0.807c4.2,1.506,5.282,2.019,5.479,3.028c0.075,0.381-0.118,0.934-0.408,1.192    c-0.851,0.766-4.898,2.268-7.026,3.028c-3.454,7.857-4.196,7.893-4.854,7.928C21.558,254.848,21.534,254.848,21.515,254.848z     M12.671,242.98c1.43,0.409,4.006,0.994,6.255,1.414c0.425,0.08,0.764,0.398,0.867,0.818c0.575,2.331,1.327,4.986,1.87,6.518    c0.79-1.427,1.977-3.925,2.94-6.133c0.123-0.28,0.356-0.497,0.645-0.598c1.92-0.676,4.088-1.504,5.452-2.1    c-0.95-0.398-2.226-0.856-3.057-1.153c-2.399-0.859-2.851-1.046-3.162-1.463c-0.271-0.364-0.438-0.968-1.033-3.389    c-0.221-0.9-0.558-2.272-0.862-3.314c-0.708,1.362-1.691,3.645-2.456,5.666c-0.11,0.291-0.336,0.519-0.622,0.635    C17.01,240.875,14.175,242.143,12.671,242.98z"/>
	</g>
	<g>
		<path style="fill:#241726;" d="M356.969,435.57c-0.809,0-1.574,0-3.69-8.423c-7.132-1.373-7.737-2.186-7.971-2.498    c-0.203-0.275-0.292-0.777-0.198-1.106c0.129-0.458,0.429-1.521,8.583-4.81c2.93-7.635,3.928-7.637,4.594-7.637    c0.348,0,0.824,0.247,1.032,0.527c0.526,0.706,1.001,2.535,1.72,5.462c0.225,0.91,0.495,2.01,0.651,2.498    c0.43,0.192,1.368,0.527,2.146,0.807c4.201,1.506,5.284,2.019,5.482,3.028c0.075,0.381-0.118,0.936-0.407,1.194    c-0.852,0.766-4.899,2.268-7.027,3.026c-3.453,7.855-4.194,7.896-4.851,7.93C357.014,435.57,356.989,435.57,356.969,435.57z     M348.126,423.702c1.431,0.409,4.006,0.992,6.254,1.412c0.425,0.077,0.764,0.398,0.867,0.818c0.575,2.333,1.326,4.986,1.87,6.518    c0.79-1.427,1.977-3.925,2.94-6.133c0.123-0.28,0.356-0.497,0.645-0.598c1.921-0.676,4.09-1.504,5.453-2.098    c-0.95-0.4-2.229-0.859-3.061-1.156c-2.396-0.861-2.848-1.046-3.159-1.463c-0.27-0.364-0.437-0.966-1.033-3.389    c-0.222-0.9-0.558-2.272-0.862-3.312c-0.709,1.36-1.693,3.643-2.458,5.666c-0.11,0.291-0.336,0.519-0.622,0.635    C352.464,421.596,349.632,422.865,348.126,423.702z"/>
	</g>
	<g>
		<g>
			<path style="fill:#241726;" d="M48.448,152.244c-0.019,0-0.059,0-0.077-0.002c-3.32-0.17-19.763-35.026-21.713-39.583     c-2.573-6.015-2.375-6.699-1.84-7.321h0.001l0,0c0.001-0.002,0.001-0.002,0.002-0.004c0.057-0.065,0.121-0.123,0.188-0.172     c0.085-0.067,0.179-0.123,0.278-0.166c0,0,0.001-0.002,0.002-0.002c0.246-0.108,0.533-0.155,0.929-0.155     c5.321,0,46.437,11.868,49.047,15.759c0.417,0.622,0.295,1.164,0.185,1.431c-1.355,3.301-10.56,6.01-12.392,6.518     c-0.294,0.086-0.612,0.041-0.875-0.125c-9.965-6.163-24.893-15.197-32.255-19.243c5.703,5.505,17.582,16.064,25.656,23.097     c0.306,0.267,0.44,0.68,0.351,1.074C51.642,152.242,49.239,152.244,48.448,152.244L48.448,152.244z M28.09,110.44     c4.308,10.353,17.3,35.738,20.387,39.349c1.287-1.782,3.563-9.391,5.16-16.284C39.05,120.791,31.735,114.079,28.09,110.44z      M32.579,108.195c8.604,4.734,22.789,13.424,30.348,18.098c3.8-1.102,8.974-3.131,10.253-4.728     C69.933,118.834,44.982,111.128,32.579,108.195z"/>
		</g>
		<g>
			<path style="fill:#241726;" d="M59.534,145.792c-0.066,0-0.132-0.002-0.202-0.009c-2.081-0.202-5.142-3.72-6.525-5.42     c-0.383-0.471-0.447-1.294,0.025-1.677c0.473-0.381,0.922-0.643,1.304-0.174c1.959,2.408,4.251,4.605,5.193,5.012     c0.65-1.534,1.668-9.18,2.239-15.752c0.053-0.607,0.592-1.039,1.193-1.003c0.606,0.052,1.054,0.587,1.002,1.192     c-0.634,7.299-1.69,16.252-3.119,17.442C60.421,145.586,60.057,145.792,59.534,145.792z"/>
		</g>
	</g>
	<g>
		<g>
			<path style="fill:#241726;" d="M441.639,432.104c-0.79,0-3.195,0-7.486-18.894c-0.089-0.394,0.045-0.807,0.351-1.074     c8.132-7.082,20.122-17.743,25.776-23.213c-7.193,3.988-22.314,13.136-32.375,19.359c-0.261,0.166-0.577,0.211-0.875,0.125     c-1.832-0.508-11.037-3.217-12.392-6.518c-0.11-0.267-0.232-0.809,0.185-1.431c2.609-3.891,43.726-15.759,49.047-15.759     c0.396,0,0.683,0.047,0.929,0.155c0,0,0.001,0.002,0.002,0.002c0.069,0.03,0.133,0.067,0.193,0.108     c0.004,0.002,0.008,0.006,0.012,0.009c0.009,0.006,0.017,0.011,0.026,0.017c0.086,0.056,0.166,0.125,0.236,0.204     c0.001,0.002,0.002,0.002,0.003,0.004l0,0c0.535,0.622,0.733,1.306-1.84,7.321c-1.951,4.558-18.393,39.413-21.712,39.583     C441.699,432.104,441.659,432.104,441.639,432.104z M436.45,413.364c1.599,6.893,3.874,14.502,5.159,16.284     c3.088-3.611,16.08-28.996,20.388-39.349C458.353,393.938,451.036,400.653,436.45,413.364z M416.908,401.425     c1.29,1.586,6.544,3.65,10.252,4.728c7.55-4.668,21.71-13.342,30.257-18.087C444.954,391.035,420.152,398.701,416.908,401.425z"/>
		</g>
		<g>
			<path style="fill:#241726;" d="M430.553,425.652c-0.523,0-0.888-0.207-1.11-0.392c-1.428-1.188-2.483-10.14-3.118-17.44     c-0.053-0.605,0.396-1.141,1.002-1.192c0.585-0.052,1.141,0.394,1.193,1.003c0.563,6.467,1.557,13.973,2.271,15.74     c0.96-0.443,3.224-2.619,5.16-4.999c0.383-0.469,0.694-0.38,1.165,0.003c0.472,0.383,0.556,1.232,0.173,1.703     c-1.384,1.7-4.453,5.364-6.534,5.566C430.686,425.65,430.619,425.652,430.553,425.652z"/>
		</g>
	</g>
	<g>
		<g>
			<path style="fill:#FFFFFF;" d="M16.203,436.727c0,0-2.118-16.08,13.36-10.877c15.478,5.203,10.435,19.926,4.534,14.888     c-5.901-5.038,5.171-22.125,17.015-14.517c11.844,7.609,9.195,22.372,0.794,23.462s5.086-17.19,15.669-5.901     s-12.524,31.872-21.973,24.304c-9.45-7.567-2.055-19.781,0.212-12.338c2.267,7.444-3.846,14.743-20.606,14.455     c-16.76-0.288-9.131-26.074-3.273-18.568c5.858,7.506-3.867,15.977-15.69,7.135C-5.579,449.927,7.908,431.647,16.203,436.727z"/>
		</g>
		<g>
			<path style="fill:#241726;" d="M26.16,471.313l-0.973-0.009c-5.5-0.095-9.374-2.909-10.744-7.762     c-2.89-0.368-5.936-1.704-8.86-3.891c-4.644-3.473-6.217-8.743-4.315-14.461c1.948-5.855,7.137-10.441,11.814-10.441     c0.662,0,1.302,0.086,1.918,0.258c-0.016-2.247,0.339-6.034,2.601-8.614c2.543-2.901,6.729-3.467,12.31-1.586     c2.141,0.719,4.019,1.653,5.596,2.78c4.475-4.704,10.838-5.739,16.198-2.294c5.117,3.288,8.229,8.343,8.493,13.697     c3.001,0.093,5.751,1.45,8.179,4.039c3.302,3.523,3.911,8.255,1.715,13.325c-3.337,7.704-12.452,14.463-19.507,14.463     c0,0-0.001,0-0.002,0c-2.212,0-4.12-0.631-5.673-1.872c-0.733-0.587-1.397-1.222-1.982-1.896     C39.224,469.843,33.461,471.313,26.16,471.313z M16.78,463.626c0.961,2.69,3.229,5.384,8.445,5.475l0.933,0.009     c8.398,0,12.993-1.963,15.464-3.833c-2.351-3.822-2.167-7.995-0.852-10.583c0.763-1.502,1.873-2.365,3.046-2.365     c0.787,0,2.229,0.402,3.05,3.099c1.135,3.729,0.298,7.377-2.295,10.155c0.504,0.581,1.079,1.132,1.717,1.642     c1.152,0.923,2.597,1.39,4.295,1.39c0.001,0,0.001,0,0.001,0c6.174,0,14.509-6.262,17.486-13.136     c1.291-2.98,2.114-7.299-1.301-10.943c-2.006-2.139-4.233-3.262-6.625-3.342c-0.515,5.139-3.739,9.017-8.099,9.583     c-2.86,0.374-3.815-1.13-3.871-2.516c-0.123-3.034,4.239-8.13,9.825-9.111c-0.212-4.661-2.957-9.092-7.485-12.002     c-4.452-2.858-9.546-2.016-13.303,1.846c3.649,3.486,4.325,7.769,3.303,10.631c-1.144,3.206-4.478,4.22-7.135,1.95     c-3.262-2.785-2.22-8.216,0.716-12.288c-1.372-0.96-3.011-1.762-4.885-2.393c-4.66-1.567-8-1.265-9.947,0.947     c-2.671,3.039-1.976,8.685-1.969,8.743c0.055,0.42-0.137,0.835-0.493,1.065c-0.358,0.23-0.815,0.237-1.175,0.017     c-0.774-0.473-1.629-0.714-2.544-0.714c-3.723,0-8.085,4.007-9.724,8.935c-0.749,2.251-1.902,7.926,3.543,11.999     c2.371,1.773,4.799,2.918,7.099,3.355c-0.408-3.762,0.554-7.893,2.486-10.291c0.941-1.169,2.042-1.786,3.183-1.786     c0.79,0,1.974,0.31,3.131,1.793c2.088,2.675,2.563,5.694,1.301,8.281C22.862,461.779,20.096,463.421,16.78,463.626z      M43.817,454.532c-0.19,0-0.653,0.314-1.081,1.16c-0.954,1.877-1.114,5.057,0.537,8.038c1.818-2.154,2.349-4.829,1.486-7.661     C44.377,454.813,43.941,454.532,43.817,454.532z M19.671,451.368c-0.444,0-0.965,0.342-1.467,0.966     c-1.425,1.767-2.468,5.539-1.956,9.109c2.699-0.052,4.939-1.257,5.874-3.172c0.879-1.801,0.494-3.973-1.057-5.959     C20.728,451.882,20.213,451.368,19.671,451.368z M57.9,441.415c-4.465,1.011-7.59,5.107-7.523,6.755     c0.009,0.204,0.018,0.458,0.848,0.458c0.165,0,0.344-0.013,0.538-0.039C54.96,448.175,57.36,445.3,57.9,441.415z M35.797,430.692     c-2.512,3.516-2.992,7.495-0.986,9.208c1.509,1.287,2.972,0.822,3.629-1.018C39.208,436.735,38.641,433.472,35.797,430.692z"/>
		</g>
	</g>
	<g>
		<g>
			<path style="fill:#FFFFFF;" d="M421.669,198.736c0,0-2.118-16.08,13.36-10.877c15.478,5.203,10.435,19.926,4.534,14.888     c-5.901-5.038,5.171-22.125,17.015-14.517c11.844,7.609,9.195,22.372,0.794,23.462c-8.401,1.09,5.086-17.19,15.669-5.901     c10.583,11.289-12.524,31.872-21.973,24.304c-9.45-7.567-2.055-19.781,0.212-12.338s-3.846,14.743-20.606,14.455     c-16.76-0.288-9.131-26.074-3.273-18.568c5.858,7.506-3.867,15.977-15.69,7.135C399.887,211.936,413.374,193.656,421.669,198.736     z"/>
		</g>
		<g>
			<path style="fill:#241726;" d="M431.626,233.322l-0.973-0.009c-5.5-0.095-9.374-2.909-10.744-7.762     c-2.89-0.368-5.936-1.704-8.86-3.891c-4.644-3.473-6.217-8.743-4.315-14.461c1.948-5.856,7.137-10.441,11.814-10.441     c0.662,0,1.302,0.086,1.918,0.258c-0.016-2.247,0.339-6.034,2.601-8.614c2.544-2.901,6.728-3.467,12.31-1.586     c2.141,0.719,4.019,1.653,5.596,2.78c4.474-4.702,10.836-5.737,16.198-2.294c5.117,3.288,8.229,8.343,8.493,13.697     c3.001,0.093,5.751,1.45,8.179,4.039c3.302,3.523,3.912,8.255,1.716,13.325c-3.338,7.704-12.452,14.463-19.508,14.463     c0,0-0.001,0-0.002,0c-2.212,0-4.12-0.631-5.673-1.872c-0.733-0.587-1.397-1.222-1.982-1.896     C444.691,231.852,438.928,233.322,431.626,233.322z M422.247,225.635c0.961,2.69,3.229,5.384,8.445,5.475l0.933,0.009     c8.398,0,12.993-1.963,15.464-3.833c-2.351-3.822-2.167-7.995-0.852-10.583c0.763-1.502,1.873-2.365,3.046-2.365     c0.787,0,2.229,0.402,3.05,3.099c1.135,3.729,0.298,7.377-2.295,10.155c0.504,0.581,1.079,1.132,1.717,1.642     c1.152,0.923,2.597,1.39,4.295,1.39c0.001,0,0.001,0,0.001,0c6.175,0,14.509-6.262,17.486-13.136     c1.292-2.98,2.114-7.299-1.301-10.943c-2.006-2.139-4.233-3.262-6.625-3.342c-0.515,5.139-3.739,9.017-8.099,9.583     c-2.863,0.368-3.817-1.13-3.871-2.516c-0.123-3.034,4.239-8.13,9.825-9.111c-0.212-4.661-2.957-9.092-7.485-12.002     c-4.45-2.858-9.546-2.019-13.303,1.846c3.649,3.486,4.325,7.769,3.303,10.631c-1.144,3.206-4.478,4.22-7.135,1.95     c-3.262-2.785-2.22-8.216,0.716-12.288c-1.372-0.96-3.011-1.762-4.885-2.393c-4.661-1.567-8.001-1.265-9.947,0.947     c-2.671,3.039-1.976,8.685-1.969,8.743c0.055,0.42-0.137,0.835-0.493,1.065c-0.357,0.23-0.813,0.239-1.175,0.017     c-0.774-0.473-1.629-0.714-2.544-0.714c-3.723,0-8.085,4.007-9.724,8.935c-0.749,2.251-1.902,7.926,3.543,11.999     c2.371,1.773,4.799,2.918,7.099,3.355c-0.408-3.762,0.554-7.893,2.486-10.291c0.941-1.169,2.042-1.786,3.183-1.786     c0.79,0,1.974,0.31,3.131,1.793c2.089,2.675,2.563,5.694,1.301,8.281C428.328,223.788,425.562,225.43,422.247,225.635z      M449.283,216.54c-0.19,0-0.653,0.314-1.081,1.16c-0.954,1.877-1.114,5.057,0.537,8.038c1.818-2.154,2.349-4.829,1.486-7.661     C449.844,216.822,449.407,216.54,449.283,216.54z M425.137,213.377c-0.444,0-0.965,0.342-1.467,0.966     c-1.425,1.767-2.468,5.539-1.956,9.109c2.699-0.052,4.939-1.257,5.874-3.172c0.879-1.801,0.494-3.973-1.057-5.959     C426.194,213.891,425.679,213.377,425.137,213.377z M463.367,203.424c-4.465,1.011-7.59,5.107-7.523,6.755     c0.009,0.204,0.018,0.458,0.848,0.458c0.165,0,0.344-0.013,0.538-0.039C460.426,210.184,462.826,207.309,463.367,203.424z      M441.264,192.701c-2.512,3.516-2.992,7.495-0.986,9.208c1.509,1.287,2.972,0.822,3.629-1.018     C444.675,198.744,444.108,195.481,441.264,192.701z"/>
		</g>
	</g>
	<g>
		<g>
			<path style="fill:#FFFFFF;" d="M83.787,70.999c0,0-2.118-16.08,13.36-10.877s10.435,19.926,4.534,14.888     c-5.901-5.038,5.171-22.125,17.015-14.517s9.195,22.372,0.794,23.462s5.086-17.19,15.669-5.901s-12.524,31.872-21.973,24.304     c-9.45-7.567-2.055-19.781,0.212-12.338s-3.846,14.743-20.606,14.455c-16.76-0.288-9.131-26.074-3.273-18.568     c5.858,7.506-3.867,15.977-15.69,7.135S75.492,65.92,83.787,70.999z"/>
		</g>
		<g>
			<path style="fill:#241726;" d="M93.744,105.585l-0.972-0.009c-5.5-0.095-9.374-2.909-10.745-7.762     c-2.89-0.37-5.935-1.704-8.859-3.891c-4.644-3.473-6.217-8.743-4.316-14.461c1.948-5.856,7.137-10.441,11.815-10.441     c0.662,0,1.302,0.086,1.918,0.258c-0.016-2.247,0.338-6.034,2.601-8.614c2.544-2.899,6.726-3.467,12.31-1.586     c2.141,0.719,4.019,1.653,5.596,2.783c4.471-4.706,10.835-5.737,16.197-2.296c5.118,3.288,8.23,8.343,8.494,13.697     c3.001,0.093,5.751,1.45,8.177,4.039c3.303,3.523,3.912,8.257,1.715,13.327c-3.337,7.704-12.452,14.463-19.507,14.463     c-2.212,0-4.121-0.631-5.674-1.872c-0.734-0.587-1.398-1.222-1.983-1.898C106.807,104.115,101.045,105.585,93.744,105.585z      M84.365,97.898c0.961,2.69,3.229,5.384,8.445,5.475l0.933,0.009c8.396,0,12.991-1.963,15.463-3.833     c-2.351-3.822-2.167-7.995-0.852-10.583c0.763-1.502,1.874-2.365,3.047-2.365c0.787,0,2.229,0.402,3.05,3.099     c1.136,3.729,0.298,7.377-2.295,10.155c0.504,0.583,1.078,1.134,1.717,1.644c1.151,0.923,2.597,1.39,4.296,1.39     c6.173,0,14.508-6.262,17.485-13.136c1.292-2.983,2.114-7.302-1.301-10.945c-2.006-2.139-4.233-3.262-6.624-3.342     c-0.515,5.139-3.739,9.017-8.099,9.583c-2.857,0.368-3.817-1.13-3.872-2.518c-0.122-3.034,4.242-8.13,9.826-9.109     c-0.212-4.661-2.957-9.092-7.485-12.002c-4.454-2.862-9.547-2.021-13.303,1.849c3.648,3.484,4.324,7.766,3.303,10.626     c-0.716,2.006-2.25,3.252-4.005,3.252h-0.001c-1.052,0-2.134-0.45-3.129-1.3c-3.262-2.785-2.22-8.216,0.716-12.286     c-1.372-0.962-3.011-1.765-4.885-2.395c-4.665-1.569-8.009-1.263-9.953,0.951c-2.676,3.054-1.971,8.681-1.964,8.737     c0.056,0.422-0.136,0.837-0.492,1.067c-0.357,0.23-0.813,0.237-1.176,0.017c-0.774-0.473-1.629-0.714-2.544-0.714     c-3.724,0-8.086,4.007-9.724,8.933c-0.749,2.253-1.902,7.928,3.543,12.002c2.371,1.773,4.798,2.916,7.098,3.355     c-0.408-3.762,0.554-7.893,2.486-10.291c0.941-1.169,2.042-1.786,3.183-1.786c0.791,0,1.976,0.31,3.132,1.793     c2.088,2.675,2.563,5.694,1.301,8.281C90.447,96.052,87.679,97.693,84.365,97.898z M111.402,88.804     c-0.192,0-0.653,0.314-1.082,1.16c-0.954,1.879-1.114,5.059,0.537,8.038c1.819-2.152,2.35-4.829,1.487-7.661     C111.961,89.086,111.524,88.804,111.402,88.804z M87.254,85.64c-0.443,0-0.965,0.342-1.467,0.966     c-1.425,1.767-2.468,5.541-1.956,9.109c2.699-0.049,4.94-1.257,5.875-3.172c0.879-1.801,0.494-3.973-1.057-5.959     C88.313,86.155,87.798,85.64,87.254,85.64z M125.485,75.687c-4.465,1.009-7.59,5.107-7.523,6.755     c0.008,0.204,0.018,0.458,0.848,0.458c0.165,0,0.344-0.013,0.538-0.039C122.546,82.447,124.946,79.572,125.485,75.687z      M103.382,64.964c-2.512,3.516-2.992,7.495-0.986,9.208c1.51,1.287,2.973,0.82,3.628-1.018     C106.792,71.007,106.225,67.744,103.382,64.964z"/>
		</g>
	</g>
	<g>
		<path style="fill:#241726;" d="M18.372,392.917c-0.002,0-0.031,0-0.032,0c-2.04-0.009-3.954-0.811-5.391-2.26    c-1.435-1.448-2.221-3.368-2.212-5.408c0.017-4.192,3.443-7.603,7.635-7.603c2.072,0.009,3.987,0.811,5.423,2.26    c1.435,1.448,2.221,3.368,2.212,5.408C25.99,389.506,22.564,392.917,18.372,392.917z M18.396,379.85    c-3.006,0-5.442,2.425-5.455,5.408c-0.006,1.453,0.552,2.819,1.574,3.848c1.021,1.031,2.383,1.601,3.834,1.608h0.024l0,0    c2.983,0,5.419-2.425,5.432-5.408c0.006-1.453-0.552-2.819-1.574-3.848C21.209,380.427,19.846,379.857,18.396,379.85z"/>
	</g>
	<g>
		<path style="fill:#241726;" d="M446.505,470.361c-0.002,0-0.031,0-0.032,0c-2.04-0.009-3.954-0.811-5.391-2.26    c-1.435-1.448-2.221-3.368-2.212-5.408c0.017-4.192,3.443-7.603,7.635-7.603c2.072,0.009,3.987,0.811,5.423,2.26    c1.435,1.448,2.221,3.368,2.212,5.408C454.123,466.951,450.697,470.361,446.505,470.361z M446.528,457.295    c-3.006,0-5.442,2.425-5.455,5.408c-0.006,1.453,0.552,2.819,1.574,3.848c1.021,1.031,2.383,1.601,3.834,1.608h0.024l0,0    c2.983,0,5.419-2.425,5.432-5.408c0.006-1.453-0.552-2.819-1.574-3.848C449.341,457.871,447.979,457.301,446.528,457.295z"/>
	</g>
	<g>
		<path style="fill:#241726;" d="M476.857,134.902c-0.002,0-0.031,0-0.032,0c-2.04-0.009-3.954-0.811-5.391-2.26    c-1.435-1.448-2.221-3.368-2.212-5.408c0.017-4.192,3.443-7.603,7.635-7.603c2.072,0.009,3.987,0.811,5.423,2.26    c1.435,1.448,2.221,3.368,2.212,5.408C484.475,131.491,481.049,134.902,476.857,134.902z M476.88,121.835    c-3.006,0-5.442,2.425-5.455,5.408c-0.006,1.453,0.552,2.819,1.574,3.848c1.021,1.031,2.383,1.601,3.834,1.608h0.024l0,0    c2.983,0,5.419-2.425,5.432-5.408c0.006-1.453-0.552-2.819-1.574-3.848C479.693,122.412,478.331,121.841,476.88,121.835z"/>
	</g>
	<g>
		<path style="fill:#241726;" d="M186.478,20.823c-0.002,0-0.031,0-0.032,0c-2.04-0.009-3.954-0.811-5.391-2.26    c-1.435-1.448-2.221-3.368-2.212-5.408c0.017-4.192,3.443-7.603,7.635-7.603c2.072,0.009,3.987,0.811,5.423,2.26    c1.435,1.448,2.221,3.368,2.212,5.408C194.096,17.412,190.67,20.823,186.478,20.823z M186.501,7.756    c-3.006,0-5.442,2.425-5.455,5.408c-0.006,1.453,0.552,2.819,1.574,3.848c1.021,1.031,2.383,1.601,3.834,1.608h0.024l0,0    c2.983,0,5.419-2.425,5.432-5.408c0.006-1.453-0.552-2.819-1.574-3.848C189.314,8.333,187.952,7.762,186.501,7.756z"/>
	</g>
	<g>
		<g>
			<path style="fill:#241726;" d="M378.542,162.804c-0.965,0-1.924-0.11-2.85-0.329c-13.29-3.125-18.645-27.065-12.191-54.501     c5.858-24.903,19.769-43.681,32.357-43.681c0.965,0,1.924,0.11,2.85,0.329c6.483,1.524,11.287,8.137,13.528,18.621     c2.181,10.2,1.705,22.942-1.337,35.88C405.042,144.025,391.131,162.804,378.542,162.804z M395.858,66.496     c-11.403,0-24.673,18.44-30.212,41.981c-6.067,25.796-1.335,49.056,10.549,51.854c0.762,0.179,1.552,0.269,2.347,0.269     c11.403,0,24.673-18.44,30.212-41.981c2.971-12.628,3.442-25.027,1.328-34.916c-2.053-9.604-6.272-15.619-11.877-16.938     C397.443,66.587,396.653,66.496,395.858,66.496z"/>
		</g>
		<g>
			<path style="fill:#241726;" d="M418.278,151.168c-12.009,0-28.043-6.49-42.892-17.364c-23.939-17.53-36.372-39.891-28.305-50.907     c2.751-3.755,7.656-5.741,14.183-5.741c12.009,0,28.043,6.49,42.892,17.364c23.939,17.53,36.372,39.891,28.305,50.905     C429.71,149.182,424.805,151.168,418.278,151.168z M361.264,79.359c-5.796,0-10.085,1.674-12.405,4.84     c-7.213,9.852,5.27,31.307,27.829,47.828c14.269,10.448,30.204,16.938,41.59,16.938c5.796,0,10.085-1.674,12.405-4.842     c7.214-9.85-5.27-31.305-27.829-47.825C388.586,85.849,372.65,79.359,361.264,79.359z"/>
		</g>
		<g>
			<path style="fill:#241726;" d="M365.24,141.359c-17.201,0-28.814-5.139-31.066-13.745c-3.454-13.209,16.325-29.437,45.031-36.945     c8.962-2.346,18.051-3.583,26.285-3.583c17.201,0,28.814,5.139,31.067,13.745c3.454,13.209-16.326,29.437-45.031,36.945     C382.564,140.122,373.475,141.359,365.24,141.359z M405.49,89.29c-8.049,0-16.946,1.214-25.728,3.51     c-27.051,7.076-46.546,22.443-43.456,34.255c1.952,7.465,13.039,12.101,28.933,12.101c8.049,0,16.947-1.214,25.729-3.51     c27.051-7.076,46.545-22.443,43.456-34.255C432.472,93.925,421.385,89.29,405.49,89.29z"/>
		</g>
		<g>
			<circle style="fill:#E45D81;" cx="389.719" cy="112.952" r="10.954"/>
		</g>
		<g>
			<circle style="fill:#9C5680;" cx="419.982" cy="149.987" r="7.481"/>
		</g>
		<g>
			<circle style="fill:#00A09A;" cx="406.933" cy="69.335" r="7.481"/>
		</g>
		<g>
			<circle style="fill:#00A09A;" cx="337.277" cy="130.533" r="7.481"/>
		</g>
	</g>
	<g>
		<g>
			<path style="fill:#241726;" d="M32.789,198.797c0,0-0.001,0-0.002,0c-15.17-0.002-17.621-14.163-17.644-14.303     c-0.082-0.48,0.09-0.565,0.525-0.782c0.435-0.215,1.19-0.493,1.521-0.138c2.585,2.757,5.434,4.528,8.919,4.528h0.001     c7.686,0,14.968-6.701,15.041-6.768c0.272-0.256,0.66-0.351,1.018-0.265c0.362,0.09,0.653,0.357,0.775,0.71l4.348,12.634     c0.193,0.56-0.091,1.173-0.642,1.386C41.528,197.788,36.865,198.797,32.789,198.797z M18.458,188.072     c1.71,3.568,5.646,8.52,14.329,8.522c0.001,0,0.001,0,0.001,0c3.543,0,7.6-0.833,12.071-2.473l-3.474-10.097     c-2.561,2.051-8.647,6.282-15.275,6.282c-0.001,0-0.002,0-0.002,0C23.318,190.306,20.757,189.557,18.458,188.072z"/>
		</g>
		<g>
			<path style="fill:#241726;" d="M28.325,189.916c-0.02,0-0.041-0.002-0.062-0.002c-0.607-0.034-1.072-0.553-1.038-1.16     c0.033-0.635,0.613-15.344-17.112-17.842l-2.813,6.88c2.609,0.39,7.821,1.786,10.473,6.759c0.286,0.538,0.083,1.205-0.454,1.491     c-0.54,0.288-1.204,0.082-1.491-0.454c-2.947-5.531-10.057-5.744-10.129-5.746c-0.363-0.009-0.698-0.194-0.897-0.497     c-0.199-0.303-0.236-0.686-0.099-1.022l3.692-9.03c0.186-0.456,0.654-0.723,1.147-0.678     c20.673,2.395,19.895,20.084,19.884,20.261C29.39,189.464,28.905,189.916,28.325,189.916z"/>
		</g>
	</g>
	<g>
		<g>
			<path style="fill:#241726;" d="M500.859,372.113c-0.349,0-0.684-0.166-0.897-0.461c-2.582-3.615-6.084-5.449-10.403-5.449     c-7.015,0-13.85,4.801-13.918,4.848c-0.303,0.217-0.697,0.265-1.045,0.127c-0.346-0.138-0.6-0.441-0.675-0.807l-2.645-13.099     c-0.117-0.579,0.245-1.149,0.821-1.289c3.77-0.915,7.268-1.377,10.396-1.377c18.653,0,19.46,16.2,19.467,16.364     c0.017,0.486-0.286,0.927-0.747,1.085C501.098,372.094,500.978,372.113,500.859,372.113z M473.649,357.886l2.114,10.467     c2.497-1.506,7.986-4.353,13.796-4.353c3.678,0,6.848,1.128,9.464,3.361c-1.375-4.227-5.307-10.551-16.529-10.551     C479.825,356.81,476.854,357.172,473.649,357.886z"/>
		</g>
		<g>
			<path style="fill:#241726;" d="M505.568,387.859c-0.09,0-0.181-0.011-0.269-0.034c-20.177-5.098-17.072-22.529-17.039-22.705     c0.114-0.598,0.697-0.983,1.287-0.874c0.598,0.114,0.99,0.691,0.878,1.289c-0.118,0.624-2.632,15.128,14.608,19.94l3.697-6.447     c-2.535-0.732-7.582-3.11-9.555-8.389c-0.213-0.57,0.142-0.899,0.713-1.112c0.564-0.209,1.771-0.008,1.984,0.565     c2.193,5.868,8.645,7.103,8.716,7.113c0.359,0.056,0.667,0.284,0.824,0.611c0.159,0.327,0.144,0.71-0.037,1.026l-4.851,8.464     C506.323,387.653,505.955,387.859,505.568,387.859z"/>
		</g>
	</g>
	<g>
		<g>
			<path style="fill:#E45D81;" d="M233.047,49.131c0,0,45.169-29.526,77.8,5.359s3.288,123.632-26.88,129.2     c-30.168,5.568-49.288-9.758-49.288-9.758s-27.591,25.164-57.437,5.363S135.076,75.522,158.668,50.273     S233.047,49.131,233.047,49.131z"/>
		</g>
		<g>
			<path style="fill:#241726;" d="M233.048,50.234c-0.382,0-0.752-0.198-0.957-0.553c-7.804-13.575-2.912-40.141-2.7-41.264     c0.113-0.598,0.696-0.983,1.287-0.878c0.597,0.112,0.991,0.689,0.878,1.287c-0.051,0.267-4.953,26.889,2.446,39.758     c0.303,0.527,0.122,1.201-0.407,1.504C233.424,50.186,233.235,50.234,233.048,50.234z"/>
		</g>
		<g>
			<path style="fill:#009F99;" d="M231.322,34.652c0,0,14.224-52.207,69.702-28.46C301.023,6.192,281.87,48.717,231.322,34.652z"/>
		</g>
		<g>
			<path style="fill:#241726;" d="M231.323,35.753c-0.318,0-0.634-0.136-0.851-0.4c-0.387-0.469-0.321-1.164,0.15-1.552     c11.875-9.794,42.675-17.476,43.981-17.799c0.593-0.14,1.188,0.215,1.333,0.805c0.146,0.592-0.214,1.188-0.806,1.334     c-0.314,0.077-31.618,7.885-43.107,17.36C231.817,35.671,231.569,35.753,231.323,35.753z"/>
		</g>
		<g>
			<path style="fill:#241726;" d="M312.416,80.379c-0.478,0-0.917-0.312-1.058-0.792c-3.685-12.596-10.123-21.143-19.134-25.408     c-14.9-7.05-31.954,0.047-32.126,0.116c-0.561,0.239-1.207-0.022-1.445-0.583c-0.239-0.56,0.023-1.207,0.582-1.444     c0.735-0.312,18.148-7.553,33.931-0.08c9.604,4.545,16.437,13.555,20.307,26.779c0.171,0.585-0.165,1.197-0.748,1.367     C312.623,80.364,312.519,80.379,312.416,80.379z"/>
		</g>
		<g>
			<g>
				<path style="fill:#241726;" d="M172.02,145.538c-0.429,0-0.838-0.254-1.016-0.674c-2.072-4.919-1.022-10.581-0.977-10.82      c0.114-0.596,0.692-0.992,1.288-0.876c0.598,0.114,0.99,0.691,0.877,1.289c-0.01,0.052-0.965,5.259,0.844,9.55      c0.236,0.562-0.027,1.207-0.587,1.444C172.308,145.51,172.163,145.538,172.02,145.538z"/>
			</g>
			<g>
				<path style="fill:#241726;" d="M171.986,126.203c-0.429,0-0.838-0.254-1.016-0.674c-2.071-4.919-1.021-10.581-0.976-10.82      c0.114-0.596,0.686-0.99,1.288-0.876c0.598,0.114,0.99,0.691,0.877,1.289c-0.01,0.052-0.965,5.259,0.842,9.55      c0.236,0.562-0.027,1.207-0.589,1.444C172.275,126.175,172.129,126.203,171.986,126.203z"/>
			</g>
			<g>
				<path style="fill:#241726;" d="M174.19,109.676c-0.429,0-0.838-0.254-1.016-0.674c-2.071-4.919-1.021-10.581-0.976-10.82      c0.114-0.596,0.689-0.994,1.288-0.876c0.598,0.114,0.99,0.691,0.877,1.289c-0.01,0.052-0.965,5.259,0.842,9.55      c0.236,0.562-0.027,1.207-0.589,1.444C174.478,109.648,174.333,109.676,174.19,109.676z"/>
			</g>
			<g>
				<path style="fill:#241726;" d="M182.085,126.315c-0.429,0-0.838-0.254-1.016-0.674c-2.071-4.917-1.021-10.579-0.976-10.818      c0.114-0.598,0.686-0.992,1.288-0.876c0.598,0.114,0.99,0.691,0.877,1.289c-0.01,0.052-0.965,5.259,0.842,9.548      c0.236,0.562-0.027,1.207-0.587,1.444C182.374,126.287,182.228,126.315,182.085,126.315z"/>
			</g>
			<g>
				<path style="fill:#241726;" d="M183.945,144.959c-0.429,0-0.838-0.252-1.016-0.674c-2.072-4.917-1.022-10.581-0.977-10.82      c0.114-0.596,0.69-0.99,1.288-0.876c0.598,0.114,0.99,0.691,0.877,1.289c-0.01,0.052-0.965,5.262,0.844,9.55      c0.236,0.562-0.027,1.207-0.587,1.444C184.233,144.931,184.088,144.959,183.945,144.959z"/>
			</g>
			<g>
				<path style="fill:#241726;" d="M178.174,162.81c-0.429,0-0.838-0.252-1.016-0.674c-2.072-4.917-1.022-10.581-0.977-10.82      c0.114-0.596,0.69-0.988,1.288-0.876c0.598,0.114,0.99,0.691,0.877,1.289c-0.01,0.052-0.965,5.262,0.844,9.55      c0.236,0.562-0.027,1.207-0.587,1.444C178.463,162.782,178.317,162.81,178.174,162.81z"/>
			</g>
			<g>
				<path style="fill:#241726;" d="M191.445,163.546c-0.373,0-0.737-0.189-0.945-0.532c-2.757-4.571-2.532-10.325-2.521-10.568      c0.028-0.607,0.557-1.125,1.149-1.05c0.608,0.026,1.078,0.54,1.052,1.149c-0.002,0.052-0.2,5.343,2.207,9.329      c0.314,0.523,0.146,1.199-0.374,1.513C191.836,163.494,191.639,163.546,191.445,163.546z"/>
			</g>
		</g>
	</g>
	<g>
		<path style="fill:#9A5780;" d="M133.885,316.331c0,0,235.562-4.939,238.506,1.235c2.945,6.174,7.361,56.803-1.472,59.273    c-8.834,2.47-241.451,3.705-241.451-2.47C129.469,368.194,126.524,315.096,133.885,316.331z"/>
	</g>
	<g>
		<g>
			<path style="fill:#FFFFFF;" d="M35.871,351.335c0,0,108.386-90.967,119.999-94.838c11.613-3.871,156.772,139.353,147.095,147.095     c-9.677,7.742-110.321,118.063-121.934,106.45C169.418,498.431,22.323,368.755,35.871,351.335z"/>
		</g>
		<g>
			<path style="fill:#241726;" d="M183.413,512c-1.316,0-2.379-0.396-3.161-1.177c-1.745-1.745-6.71-6.301-13.579-12.608     C67.231,406.939,26.623,361.431,35.002,350.66c0.047-0.062,0.101-0.118,0.161-0.168c4.432-3.721,108.68-91.147,120.358-95.04     c0.266-0.088,0.564-0.133,0.883-0.133c14.481,0,140.1,123.353,147.707,145.043c0.677,1.928,0.523,3.305-0.458,4.091     c-2.205,1.762-9.349,9.088-19.239,19.224C242.728,466.41,197.105,512,183.413,512z M36.678,352.098     c-2.434,3.407,0.606,16.23,46.841,63.638c29.434,30.179,65.349,63.145,84.644,80.856c6.891,6.325,11.869,10.893,13.648,12.673     c0.358,0.359,0.882,0.532,1.603,0.532c13.91,0,71.668-59.205,99.424-87.659c9.944-10.192,17.129-17.558,19.439-19.406     c0.005-0.004,0.337-0.59-0.805-2.97c-11.473-23.928-132.137-142.239-145.067-142.239     C145.087,261.254,40.474,348.915,36.678,352.098z"/>
		</g>
	</g>
	<g>
		<g>
			<g>
				<g>
					<path style="fill:#FBFCFF;" d="M452.131,315.479c0,0-111.514,68.809-116.931,68.925c-5.417,0.116-54.162,2.336-53.101-1.204       c1.062-3.54,30.038-48.713,30.038-48.713l121.477-67.229L452.131,315.479z"/>
				</g>
				<g>
					<path style="fill:#241726;" d="M301.605,386.299c-18.761,0-19.734-1.306-20.316-2.087c-0.289-0.39-0.378-0.874-0.241-1.328       c1.076-3.585,27.192-44.354,30.166-48.99c0.099-0.155,0.235-0.282,0.394-0.37l121.477-67.23c0.28-0.151,0.611-0.181,0.91-0.071       c0.3,0.11,0.538,0.342,0.652,0.639l18.517,48.221c0.189,0.495,0.001,1.054-0.45,1.334       c-11.44,7.058-111.93,68.966-117.486,69.089c-0.684,0.015-2.062,0.062-3.945,0.129       C324.671,385.869,312.363,386.299,301.605,386.299z M283.368,383.013c1.096,0.392,4.923,1.082,18.237,1.082       c10.719,0,23.002-0.43,29.601-0.661c1.897-0.067,3.285-0.116,3.975-0.131c4.415-0.506,71.246-40.926,115.599-68.282       l-17.735-46.186l-120.125,66.481C301.845,352.586,285.507,378.494,283.368,383.013z"/>
				</g>
			</g>
			<g>
				<path style="fill:#241726;" d="M299.387,352.479l17.402,33.493c0,0-36.286,1.952-37.381,0.217      C277.22,382.719,299.387,352.479,299.387,352.479z"/>
			</g>
			<g>
				<path style="fill:#E45D81;" d="M335.317,385.198l4.44-23.167l-16.651-5.895l4.256-12.597c0,0-15.725-4.545-15.759-10.015      s118.426-65.569,118.426-65.569s26.819,47.666,22.5,50.104C448.21,320.497,335.714,391.051,335.317,385.198z"/>
			</g>
			<g>
				<path style="fill:#241726;" d="M339.757,363.133c-0.38,0-0.749-0.196-0.953-0.547c-0.306-0.527-0.128-1.201,0.398-1.506      c29.877-17.403,107.988-63.092,110.599-65.506c0.43-0.398,1.124-0.411,1.544,0.004c0.419,0.413,0.461,1.061,0.067,1.5      c-2.204,2.447-99.961,59.418-111.101,65.904C340.136,363.086,339.946,363.133,339.757,363.133z"/>
			</g>
			<g>
				<path style="fill:#241726;" d="M327.03,345.025c-0.376,0-0.742-0.192-0.948-0.538c-0.311-0.523-0.14-1.199,0.383-1.511      l115.874-68.926c0.523-0.314,1.199-0.14,1.51,0.383c0.311,0.523,0.14,1.199-0.383,1.511L327.592,344.87      C327.415,344.976,327.221,345.025,327.03,345.025z"/>
			</g>
		</g>
		<g>
			<g>
				<path style="fill:#FFFFFF;" d="M416.098,274.385c0,0,23.527,49.373,25.598,50.033s27.561-17.587,26.964-21.457      c-0.597-3.87-21.4-42.577-27.693-40.29C434.673,264.959,416.098,274.385,416.098,274.385z"/>
			</g>
			<g>
				<path style="fill:#241726;" d="M441.827,325.538h-0.001c-0.113,0-0.358-0.034-0.466-0.069      c-1.675-0.536-10.51-17.562-26.257-50.61c-0.257-0.54-0.038-1.186,0.496-1.457c0.761-0.385,18.707-9.484,24.991-11.765      c0.299-0.11,0.62-0.164,0.952-0.164c7.784,0,27.588,37.32,28.206,41.32c0.15,0.968-0.411,2.13-1.817,3.77      C462.757,312.594,444.95,325.538,441.827,325.538z M417.555,274.885c8.471,17.745,21.944,45.174,24.513,48.385      c1.541-0.521,7.053-3.899,13.711-8.963c8.593-6.533,11.757-10.282,11.789-11.205c-0.662-4.272-20.357-39.424-26.026-39.424      C436.025,265.644,421.439,272.929,417.555,274.885z"/>
			</g>
		</g>
		<g>
			<path style="fill:#9A5780;" d="M426.189,268.15c0,0,22.556,49.316,26.34,49.909c3.784,0.593,27.333-16.787,27.333-16.787     s-28.167-46.037-30.556-45.572S426.189,268.15,426.189,268.15z"/>
		</g>
	</g>
	<g>
		<path style="fill:#E45D81;" d="M42.176,335.099l17.928,21.187c0,0,8.149-4.889,9.779-8.149s-16.653-24.891-19.557-24.447    C47.182,324.171,36.472,330.21,42.176,335.099z"/>
	</g>
	<g>
		<path style="fill:#E45D81;" d="M67.694,314.543l17.928,21.187c0,0,8.149-4.889,9.779-8.149s-16.713-25.185-19.557-24.447    C72.912,303.895,61.99,309.654,67.694,314.543z"/>
	</g>
	<g>
		<path style="fill:#E45D81;" d="M96.047,291.151l17.928,21.187c0,0,8.149-4.889,9.779-8.149s-16.672-25-19.557-24.447    C101.11,280.335,90.343,286.262,96.047,291.151z"/>
	</g>
	<g>
		<path style="fill:#E45D81;" d="M124.401,269.886l17.928,21.187c0,0,8.149-4.889,9.779-8.149s-16.649-24.867-19.557-24.447    C129.605,258.904,118.697,264.997,124.401,269.886z"/>
	</g>
	<g>
		<path style="fill:#73BCC0;" d="M156.291,321.551c0,0,13.897,6.646,15.106,4.23s-0.604-41.692,1.813-41.087s11.48,4.23,11.48,4.23    s-1.813,50.755-5.438,48.942c-3.625-1.813-22.961-3.625-24.169-6.646C153.874,328.197,156.291,321.551,156.291,321.551z"/>
	</g>
	<g>
		<path style="fill:#73BCC0;" d="M195.985,359.119c0,0,13.897,6.646,15.106,4.23s-0.604-41.692,1.813-41.087    c2.417,0.604,11.48,4.23,11.48,4.23s-1.813,50.755-5.438,48.942c-3.625-1.813-22.961-3.625-24.169-6.646    C193.569,365.765,195.985,359.119,195.985,359.119z"/>
	</g>
	<g>
		<path style="fill:#73BCC0;" d="M234.182,400.253c0,0,13.897,6.646,15.106,4.23s-0.604-41.692,1.813-41.087s11.48,4.23,11.48,4.23    s-1.813,50.755-5.438,48.942c-3.625-1.813-22.961-3.625-24.169-6.646C231.765,406.899,234.182,400.253,234.182,400.253z"/>
	</g>
	<g>
		<g>
			<path style="fill:#FFFFFF;" d="M81.665,393.145c0,0,57.415-48.201,61.668-50.327"/>
		</g>
		<g>
			<path style="fill:#241726;" d="M81.667,394.248c-0.315,0-0.627-0.133-0.845-0.394c-0.392-0.465-0.331-1.16,0.136-1.552     c2.348-1.971,57.564-48.31,61.883-50.47c0.542-0.275,1.206-0.052,1.478,0.493c0.272,0.544,0.052,1.205-0.493,1.478     c-3.393,1.696-45.51,36.803-61.453,50.186C82.168,394.164,81.916,394.248,81.667,394.248z"/>
		</g>
	</g>
	<g>
		<g>
			<path style="fill:#FFFFFF;" d="M92.298,403.069c0,0,38.277-34.623,41.112-36.15"/>
		</g>
		<g>
			<path style="fill:#241726;" d="M92.298,404.171c-0.3,0-0.599-0.123-0.817-0.364c-0.409-0.45-0.373-1.147,0.077-1.556     c3.928-3.553,38.459-34.757,41.329-36.304c0.538-0.286,1.204-0.088,1.492,0.448c0.289,0.536,0.089,1.205-0.447,1.493     c-1.994,1.074-25.549,22.116-40.896,35.998C92.826,404.076,92.561,404.171,92.298,404.171z"/>
		</g>
	</g>
	<g>
		<g>
			<path style="fill:#FFFFFF;" d="M126.322,431.422c0,0,57.415-48.201,61.668-50.327"/>
		</g>
		<g>
			<path style="fill:#241726;" d="M126.323,432.523c-0.315,0-0.627-0.133-0.845-0.394c-0.392-0.465-0.331-1.16,0.136-1.552     c2.348-1.971,57.563-48.31,61.883-50.468c0.544-0.273,1.207-0.049,1.478,0.493c0.272,0.544,0.052,1.207-0.493,1.478     c-3.394,1.696-45.511,36.801-61.453,50.184C126.825,432.439,126.573,432.523,126.323,432.523z"/>
		</g>
	</g>
	<g>
		<g>
			<path style="fill:#FFFFFF;" d="M136.954,441.346c0,0,38.277-34.623,41.112-36.151"/>
		</g>
		<g>
			<path style="fill:#241726;" d="M136.954,442.448c-0.3,0-0.599-0.123-0.817-0.364c-0.409-0.45-0.373-1.147,0.077-1.556     c3.928-3.553,38.459-34.757,41.329-36.304c0.539-0.284,1.204-0.088,1.492,0.448c0.289,0.536,0.089,1.205-0.447,1.493     c-1.994,1.074-25.549,22.116-40.896,35.998C137.482,442.354,137.218,442.448,136.954,442.448z"/>
		</g>
	</g>
	<g>
		<g>
			<path style="fill:#FFFFFF;" d="M163.89,467.573c0,0,57.415-48.201,61.668-50.327"/>
		</g>
		<g>
			<path style="fill:#241726;" d="M163.892,468.674c-0.315,0-0.627-0.133-0.845-0.394c-0.392-0.465-0.331-1.16,0.136-1.552     c2.348-1.971,57.563-48.31,61.883-50.468c0.544-0.275,1.207-0.049,1.478,0.493c0.272,0.544,0.052,1.207-0.493,1.478     c-3.394,1.696-45.511,36.801-61.453,50.184C164.393,468.59,164.141,468.674,163.892,468.674z"/>
		</g>
	</g>
	<g>
		<g>
			<path style="fill:#FFFFFF;" d="M174.523,477.497c0,0,38.277-34.623,41.112-36.15"/>
		</g>
		<g>
			<path style="fill:#241726;" d="M174.522,478.599c-0.3,0-0.599-0.123-0.817-0.364c-0.409-0.45-0.373-1.147,0.077-1.556     c3.928-3.553,38.459-34.757,41.329-36.304c0.538-0.284,1.204-0.088,1.492,0.448c0.289,0.536,0.089,1.205-0.447,1.493     c-1.994,1.074-25.549,22.116-40.896,35.998C175.051,478.505,174.786,478.599,174.522,478.599z"/>
		</g>
	</g>
	<g>
		<path style="fill:#241726;" d="M300.613,502.122l-0.755-0.011c-0.609-0.017-1.089-0.523-1.073-1.132    c0.016-0.609,0.603-1.113,1.131-1.072l0.706,0.011c1.174,0,2.362-0.073,3.521-0.215c0.593-0.095,1.152,0.355,1.228,0.958    c0.075,0.605-0.354,1.156-0.959,1.229C303.164,502.045,301.886,502.122,300.613,502.122z M295.498,501.752    c-0.046,0-0.095-0.002-0.142-0.009c-1.527-0.198-3.018-0.461-4.434-0.783c-0.593-0.133-0.965-0.725-0.831-1.317    c0.136-0.594,0.727-0.971,1.319-0.831c1.348,0.306,2.771,0.557,4.228,0.745c0.604,0.077,1.03,0.631,0.952,1.235    C296.518,501.348,296.043,501.752,295.498,501.752z M308.583,501.014c-0.479,0-0.919-0.314-1.059-0.796    c-0.169-0.585,0.168-1.194,0.753-1.364c1.34-0.387,2.671-0.887,3.956-1.487c0.552-0.26,1.207-0.019,1.464,0.534    c0.257,0.551,0.018,1.205-0.533,1.463c-1.389,0.648-2.828,1.188-4.277,1.608C308.786,501.001,308.684,501.014,308.583,501.014z     M286.936,499.781c-0.119,0-0.241-0.019-0.36-0.06c-1.448-0.501-2.856-1.089-4.185-1.747c-0.546-0.271-0.769-0.932-0.499-1.476    c0.27-0.547,0.93-0.77,1.476-0.499c1.247,0.618,2.568,1.169,3.928,1.64c0.576,0.2,0.88,0.826,0.681,1.403    C287.819,499.495,287.392,499.781,286.936,499.781z M316.532,497.308c-0.357,0-0.707-0.172-0.919-0.493    c-0.337-0.508-0.198-1.19,0.309-1.528c1.152-0.764,2.289-1.633,3.376-2.587c0.458-0.402,1.155-0.357,1.555,0.103    c0.401,0.456,0.355,1.153-0.102,1.554c-1.163,1.018-2.378,1.95-3.611,2.767C316.953,497.248,316.741,497.308,316.532,497.308z     M279.079,495.873c-0.213,0-0.429-0.062-0.619-0.192c-1.26-0.856-2.462-1.81-3.571-2.83c-0.449-0.413-0.477-1.11-0.066-1.558    c0.414-0.445,1.113-0.473,1.557-0.065c1.031,0.949,2.148,1.833,3.319,2.632c0.504,0.342,0.634,1.026,0.292,1.53    C279.777,495.705,279.432,495.873,279.079,495.873z M323.161,491.543c-0.264,0-0.528-0.095-0.739-0.284    c-0.451-0.409-0.486-1.106-0.077-1.558c0.938-1.037,1.85-2.156,2.709-3.331c0.359-0.488,1.051-0.596,1.54-0.237    c0.491,0.359,0.597,1.048,0.238,1.541c-0.904,1.233-1.864,2.412-2.854,3.508C323.761,491.421,323.461,491.543,323.161,491.543z     M272.622,489.936c-0.321,0-0.637-0.138-0.855-0.407c-0.94-1.153-1.823-2.406-2.622-3.723c-0.315-0.521-0.15-1.199,0.371-1.515    c0.522-0.312,1.198-0.146,1.513,0.37c0.747,1.231,1.57,2.402,2.447,3.478c0.384,0.471,0.313,1.164-0.158,1.549    C273.113,489.854,272.866,489.936,272.622,489.936z M328.385,484.455c-0.194,0-0.391-0.052-0.568-0.159    c-0.521-0.314-0.689-0.992-0.374-1.513c0.731-1.207,1.431-2.481,2.084-3.785c0.272-0.547,0.932-0.766,1.479-0.493    c0.543,0.273,0.764,0.934,0.492,1.478c-0.68,1.356-1.41,2.681-2.168,3.94C329.122,484.265,328.759,484.455,328.385,484.455z     M268.046,482.434c-0.422,0-0.823-0.243-1.006-0.652c-0.604-1.345-1.147-2.77-1.615-4.233c-0.186-0.579,0.133-1.199,0.713-1.386    c0.584-0.183,1.199,0.136,1.385,0.714c0.443,1.386,0.958,2.733,1.527,4.005c0.25,0.555,0.001,1.207-0.554,1.455    C268.349,482.404,268.197,482.434,268.046,482.434z M359.948,476.589c-0.785,0-1.558-0.013-2.317-0.039    c-0.609-0.022-1.085-0.532-1.063-1.141c0.022-0.607,0.561-1.078,1.138-1.063c1.4,0.049,2.844,0.052,4.335,0.006    c0.611,0.024,1.117,0.461,1.135,1.07c0.017,0.607-0.461,1.115-1.068,1.134C361.377,476.579,360.657,476.589,359.948,476.589z     M332.335,476.579c-0.14,0-0.282-0.026-0.419-0.082c-0.563-0.232-0.832-0.876-0.6-1.438c0.547-1.334,1.052-2.703,1.503-4.065    c0.19-0.579,0.81-0.897,1.391-0.702c0.578,0.189,0.892,0.813,0.7,1.39c-0.466,1.414-0.99,2.83-1.557,4.211    C333.18,476.32,332.769,476.579,332.335,476.579z M366.473,476.297c-0.565,0-1.046-0.433-1.096-1.005    c-0.053-0.607,0.395-1.141,1.002-1.194c1.405-0.123,2.846-0.286,4.322-0.491c0.598-0.088,1.158,0.338,1.242,0.94    c0.084,0.603-0.338,1.158-0.94,1.242c-1.513,0.209-2.99,0.377-4.432,0.504C366.537,476.294,366.505,476.297,366.473,476.297z     M353.276,476.247c-0.039,0-0.077-0.002-0.116-0.006c-1.521-0.159-3.018-0.377-4.449-0.648c-0.598-0.112-0.991-0.689-0.878-1.287    s0.695-0.983,1.287-0.878c1.372,0.258,2.808,0.467,4.271,0.622c0.605,0.062,1.045,0.605,0.98,1.212    C354.311,475.827,353.833,476.247,353.276,476.247z M375.191,475.059c-0.511,0-0.971-0.357-1.078-0.878    c-0.123-0.596,0.26-1.179,0.855-1.302c1.429-0.297,2.836-0.648,4.183-1.042c0.585-0.168,1.197,0.164,1.368,0.747    c0.171,0.583-0.164,1.197-0.748,1.367c-1.404,0.413-2.87,0.777-4.356,1.085C375.34,475.053,375.265,475.059,375.191,475.059z     M344.627,474.603c-0.101,0-0.202-0.013-0.303-0.043c-1.481-0.422-2.92-0.919-4.278-1.474c-0.563-0.23-0.833-0.874-0.603-1.438    c0.232-0.564,0.878-0.831,1.438-0.603c1.284,0.525,2.646,0.994,4.048,1.397c0.585,0.166,0.924,0.777,0.758,1.362    C345.547,474.289,345.106,474.603,344.627,474.603z M265.341,474.052c-0.509,0-0.965-0.353-1.076-0.872    c-0.311-1.45-0.561-2.946-0.743-4.448c-0.074-0.605,0.356-1.153,0.96-1.227c0.611-0.082,1.153,0.355,1.227,0.96    c0.175,1.435,0.414,2.866,0.711,4.254c0.128,0.594-0.252,1.179-0.847,1.308C265.495,474.043,265.417,474.052,265.341,474.052z     M383.63,472.589c-0.442,0-0.86-0.269-1.029-0.706c-0.218-0.568,0.065-1.205,0.633-1.425c1.341-0.516,2.667-1.095,3.941-1.722    c0.546-0.271,1.206-0.045,1.475,0.501c0.268,0.547,0.044,1.207-0.503,1.474c-1.333,0.656-2.72,1.263-4.122,1.803    C383.895,472.565,383.762,472.589,383.63,472.589z M336.502,471.244c-0.186,0-0.374-0.047-0.547-0.146    c-1.379-0.79-2.652-1.661-3.783-2.591c-0.47-0.387-0.538-1.082-0.152-1.552c0.384-0.469,1.079-0.538,1.55-0.153    c0.14,0.116,0.282,0.23,0.426,0.342c-0.003-0.101,0.008-0.204,0.033-0.31c0.358-1.416,0.661-2.838,0.9-4.229    c0.102-0.6,0.664-1.007,1.272-0.902c0.599,0.103,1.003,0.674,0.9,1.272c-0.247,1.448-0.562,2.929-0.934,4.401    c-0.1,0.392-0.399,0.682-0.763,0.788c0.527,0.353,1.076,0.695,1.646,1.022c0.528,0.301,0.711,0.975,0.408,1.504    C337.256,471.046,336.884,471.244,336.502,471.244z M391.521,468.707c-0.371,0-0.734-0.187-0.941-0.527    c-0.317-0.521-0.153-1.199,0.367-1.515c1.216-0.742,2.416-1.552,3.565-2.408c0.486-0.364,1.177-0.263,1.541,0.226    s0.263,1.179-0.226,1.543c-1.202,0.895-2.459,1.743-3.733,2.52C391.915,468.655,391.717,468.707,391.521,468.707z     M329.787,465.627c-0.329,0-0.655-0.146-0.872-0.426c-1.031-1.33-1.809-2.72-2.313-4.132c-0.206-0.572,0.094-1.203,0.666-1.407    c0.575-0.2,1.204,0.093,1.408,0.667c0.426,1.19,1.092,2.376,1.98,3.521c0.373,0.482,0.285,1.173-0.196,1.547    C330.261,465.552,330.023,465.627,329.787,465.627z M264.269,465.3c-0.591,0-1.08-0.469-1.1-1.065    c-0.022-0.618-0.03-1.184-0.03-1.689c0-1.797,0.103-2.862,0.103-2.862c0.058-0.603,0.598-1.054,1.201-0.99    c0.606,0.058,1.049,0.594,0.992,1.199c-0.002,0.028-0.093,1.011-0.093,2.653c0,0.484,0.009,1.024,0.028,1.616    c0.022,0.607-0.455,1.117-1.063,1.138C264.295,465.3,264.282,465.3,264.269,465.3z M398.574,463.451    c-0.301,0-0.603-0.123-0.82-0.366c-0.407-0.452-0.369-1.149,0.084-1.556c1.059-0.951,2.093-1.965,3.073-3.017    c0.417-0.443,1.114-0.467,1.557-0.054c0.445,0.413,0.47,1.11,0.055,1.556c-1.025,1.1-2.106,2.161-3.213,3.155    C399.1,463.359,398.836,463.451,398.574,463.451z M336.555,459.513c-0.026,0-0.053,0-0.079-0.002    c-0.607-0.043-1.064-0.57-1.021-1.177c0.056-0.796,0.084-1.558,0.085-2.279c0-0.691-0.027-1.345-0.079-1.954    c-0.053-0.607,0.397-1.141,1.003-1.192c0.611-0.047,1.139,0.396,1.192,1.003c0.058,0.669,0.087,1.388,0.087,2.146    c-0.001,0.77-0.031,1.584-0.091,2.432C337.612,459.07,337.129,459.513,336.555,459.513z M327.066,457.473    c-0.037,0-0.073-0.002-0.111-0.006c-0.605-0.06-1.047-0.598-0.987-1.205c0.164-1.638,0.722-3.185,1.661-4.601    c0.336-0.51,1.017-0.646,1.527-0.31c0.507,0.338,0.646,1.02,0.309,1.528c-0.738,1.113-1.177,2.326-1.304,3.602    C328.104,457.049,327.625,457.473,327.066,457.473z M404.581,457.017c-0.238,0-0.478-0.077-0.679-0.235    c-0.479-0.377-0.563-1.07-0.187-1.547c0.882-1.125,1.732-2.303,2.525-3.503c0.334-0.51,1.02-0.652,1.526-0.312    c0.508,0.336,0.648,1.018,0.312,1.526c-0.825,1.25-1.71,2.479-2.629,3.65C405.232,456.873,404.908,457.017,404.581,457.017z     M335.44,450.884c-0.369,0-0.728-0.185-0.937-0.521c-0.451-0.727-0.861-0.727-1.015-0.727c-0.341,0-0.771,0.161-1.245,0.467    c-0.508,0.329-1.192,0.181-1.523-0.331c-0.329-0.512-0.182-1.194,0.33-1.524c0.841-0.54,1.661-0.816,2.437-0.816    c0.817,0,1.98,0.308,2.887,1.769c0.321,0.516,0.161,1.197-0.355,1.517C335.84,450.83,335.638,450.884,335.44,450.884z     M409.445,449.67c-0.181,0-0.365-0.045-0.535-0.14c-0.532-0.295-0.723-0.966-0.427-1.498c0.691-1.242,1.35-2.539,1.962-3.861    c0.256-0.551,0.911-0.792,1.462-0.538c0.552,0.256,0.793,0.91,0.537,1.463c-0.634,1.369-1.318,2.718-2.035,4.007    C410.207,449.466,409.832,449.67,409.445,449.67z M413.15,441.669c-0.129,0-0.261-0.024-0.389-0.071    c-0.569-0.215-0.857-0.85-0.641-1.42c0.514-1.36,0.979-2.744,1.383-4.108c0.172-0.583,0.787-0.912,1.369-0.745    c0.584,0.172,0.917,0.785,0.745,1.369c-0.419,1.418-0.902,2.851-1.434,4.263C414.014,441.398,413.596,441.669,413.15,441.669z"/>
	</g>
	<path style="fill:#241726;" d="M37.366,322.794c-0.37,0-0.732-0.187-0.939-0.525c0,0-0.112-0.181-0.299-0.527   c-0.288-0.536-0.087-1.205,0.449-1.493c0.536-0.284,1.203-0.086,1.492,0.448c0.142,0.265,0.229,0.411,0.238,0.424   c0.316,0.519,0.152,1.196-0.367,1.513C37.761,322.743,37.562,322.794,37.366,322.794z M35.322,318.286   c-0.452,0-0.875-0.28-1.036-0.73c-0.515-1.429-0.94-2.901-1.262-4.368c-0.13-0.596,0.245-1.184,0.84-1.313   c0.595-0.129,1.181,0.245,1.312,0.839c0.302,1.377,0.7,2.755,1.183,4.097c0.207,0.572-0.09,1.203-0.663,1.41   C35.571,318.264,35.446,318.286,35.322,318.286z M33.453,309.697c-0.57,0-1.053-0.441-1.098-1.018   c-0.058-0.766-0.09-1.549-0.09-2.35c-0.001-0.725,0.026-1.468,0.083-2.223c0.045-0.607,0.581-1.076,1.181-1.016   c0.607,0.047,1.062,0.577,1.016,1.184c-0.053,0.695-0.077,1.382-0.076,2.053c0,0.747,0.03,1.474,0.084,2.184   c0.046,0.607-0.409,1.136-1.016,1.184C33.509,309.697,33.481,309.697,33.453,309.697z M34.128,300.945   c-0.086,0-0.173-0.011-0.259-0.03c-0.592-0.144-0.955-0.738-0.812-1.33c0.356-1.476,0.837-2.94,1.431-4.349   c0.237-0.56,0.883-0.82,1.444-0.587c0.561,0.237,0.823,0.882,0.587,1.444c-0.548,1.3-0.992,2.649-1.321,4.009   C35.075,300.607,34.625,300.945,34.128,300.945z M37.523,292.858c-0.197,0-0.397-0.054-0.578-0.164   c-0.518-0.321-0.678-0.999-0.358-1.517c0.777-1.259,1.672-2.501,2.662-3.695c0.388-0.467,1.082-0.529,1.552-0.144   c0.468,0.387,0.533,1.082,0.144,1.552c-0.924,1.115-1.759,2.272-2.483,3.445C38.254,292.673,37.892,292.858,37.523,292.858z    M43.109,286.079c-0.292,0-0.583-0.116-0.801-0.344c-0.419-0.443-0.399-1.141,0.043-1.558c1.057-0.999,2.212-1.984,3.436-2.927   c0.482-0.372,1.174-0.28,1.545,0.198c0.371,0.482,0.282,1.175-0.2,1.545c-1.164,0.9-2.263,1.836-3.266,2.785   C43.653,285.98,43.381,286.079,43.109,286.079z M50.065,280.693c-0.363,0-0.718-0.179-0.929-0.506   c-0.328-0.512-0.18-1.194,0.332-1.524c1.219-0.783,2.517-1.552,3.857-2.281c0.53-0.295,1.203-0.097,1.495,0.439   c0.292,0.534,0.095,1.203-0.44,1.493c-1.293,0.706-2.546,1.448-3.722,2.204C50.475,280.637,50.268,280.693,50.065,280.693z    M57.784,276.464c-0.414,0-0.811-0.235-0.999-0.635c-0.258-0.551-0.02-1.207,0.53-1.466c1.299-0.607,2.66-1.203,4.089-1.784   c0.56-0.23,1.207,0.039,1.435,0.605c0.23,0.564-0.041,1.207-0.605,1.435c-1.392,0.568-2.719,1.147-3.985,1.741   C58.099,276.432,57.94,276.464,57.784,276.464z M65.937,273.137c-0.453,0-0.878-0.282-1.038-0.734   c-0.203-0.572,0.096-1.203,0.669-1.405c0.986-0.351,2-0.695,3.042-1.035l1.148-0.381c0.578-0.187,1.203,0.116,1.397,0.691   c0.195,0.577-0.114,1.201-0.691,1.397l-1.173,0.389c-1.023,0.331-2.019,0.671-2.985,1.016   C66.183,273.118,66.06,273.137,65.937,273.137z M74.239,270.194c-0.435,0-0.848-0.26-1.021-0.689   c-0.228-0.564,0.043-1.205,0.607-1.435c1.362-0.551,2.692-1.143,3.955-1.758c0.554-0.267,1.209-0.039,1.473,0.508   c0.267,0.547,0.04,1.205-0.507,1.472c-1.308,0.639-2.686,1.25-4.093,1.823C74.518,270.168,74.377,270.194,74.239,270.194z    M82.145,266.318c-0.377,0-0.744-0.194-0.95-0.54c-0.309-0.525-0.136-1.201,0.388-1.511c1.263-0.747,2.472-1.539,3.592-2.356   c0.493-0.364,1.181-0.252,1.54,0.239c0.358,0.491,0.252,1.181-0.24,1.539c-1.177,0.861-2.446,1.694-3.77,2.477   C82.529,266.268,82.335,266.318,82.145,266.318z M89.231,261.112c-0.297,0-0.593-0.118-0.81-0.355   c-0.412-0.448-0.384-1.145,0.063-1.556c1.066-0.983,2.052-2.021,2.93-3.082c0.384-0.471,1.082-0.54,1.55-0.148   c0.469,0.39,0.536,1.082,0.147,1.552c-0.941,1.138-1.996,2.249-3.134,3.297C89.766,261.015,89.498,261.112,89.231,261.112z    M94.799,254.329c-0.192,0-0.386-0.049-0.563-0.155c-0.523-0.312-0.694-0.988-0.383-1.511c0.725-1.218,1.345-2.492,1.843-3.787   c0.218-0.566,0.855-0.848,1.425-0.633c0.567,0.219,0.851,0.856,0.633,1.425c-0.543,1.412-1.218,2.798-2.007,4.123   C95.541,254.138,95.175,254.329,94.799,254.329z M97.944,246.145c-0.07,0-0.141-0.006-0.212-0.022   c-0.597-0.116-0.987-0.695-0.87-1.291c0.267-1.367,0.42-2.776,0.454-4.19c0.015-0.609,0.476-1.029,1.129-1.076   c0.608,0.015,1.089,0.521,1.075,1.128c-0.038,1.539-0.204,3.073-0.495,4.56C98.921,245.782,98.461,246.145,97.944,246.145z    M98.177,237.378c-0.544,0-1.018-0.402-1.091-0.958c-0.182-1.377-0.471-2.776-0.859-4.16c-0.165-0.585,0.178-1.194,0.763-1.358   c0.593-0.159,1.194,0.179,1.359,0.764c0.415,1.483,0.726,2.985,0.921,4.465c0.08,0.603-0.344,1.158-0.948,1.237   C98.274,237.376,98.224,237.378,98.177,237.378z M95.825,228.908c-0.428,0-0.835-0.252-1.014-0.671   c-0.328-0.768-0.689-1.537-1.077-2.292c-0.422,0.226-0.844,0.441-1.264,0.643c-0.552,0.263-1.208,0.03-1.47-0.519   c-0.263-0.549-0.03-1.207,0.519-1.47c0.413-0.198,0.827-0.409,1.242-0.635c-0.037-0.413,0.164-0.831,0.547-1.052   c0.38-0.217,0.831-0.185,1.17,0.043c0.241-0.153,0.481-0.308,0.72-0.469c0.505-0.344,1.19-0.209,1.529,0.301   c0.339,0.504,0.204,1.188-0.3,1.528c-0.261,0.176-0.524,0.346-0.787,0.512c0.435,0.839,0.836,1.691,1.2,2.548   c0.239,0.56-0.023,1.205-0.582,1.444C96.115,228.88,95.969,228.908,95.825,228.908z M83.522,228.863   c-0.596,0-1.087-0.476-1.102-1.074c-0.015-0.609,0.466-1.115,1.075-1.13c1.335-0.032,2.713-0.235,4.093-0.6   c0.589-0.164,1.191,0.196,1.347,0.783c0.156,0.587-0.195,1.192-0.783,1.347c-1.547,0.409-3.096,0.635-4.603,0.674   C83.54,228.863,83.53,228.863,83.522,228.863z M79.154,228.402c-0.087,0-0.175-0.011-0.264-0.032   c-1.532-0.374-3.001-0.962-4.363-1.743c-0.527-0.303-0.71-0.975-0.407-1.504c0.3-0.527,0.974-0.712,1.504-0.407   c1.183,0.678,2.458,1.188,3.791,1.515c0.591,0.144,0.952,0.74,0.808,1.332C80.1,228.066,79.65,228.402,79.154,228.402z    M71.604,224.077c-0.287,0-0.575-0.112-0.791-0.336c-1.136-1.171-2.063-2.464-2.752-3.843c-0.272-0.544-0.052-1.205,0.493-1.478   c0.547-0.273,1.206-0.049,1.478,0.493c0.589,1.177,1.384,2.285,2.363,3.297c0.424,0.437,0.413,1.134-0.024,1.558   C72.157,223.973,71.881,224.077,71.604,224.077z M99.315,221.834c-0.313,0-0.623-0.131-0.841-0.389   c-0.394-0.463-0.337-1.158,0.127-1.552c1.043-0.884,2.101-1.874,3.146-2.94c0.427-0.435,1.123-0.441,1.558-0.013   c0.435,0.426,0.441,1.123,0.015,1.558c-1.092,1.113-2.2,2.146-3.293,3.073C99.82,221.748,99.567,221.834,99.315,221.834z    M91.44,221.288c-0.337,0-0.668-0.153-0.884-0.443c-0.858-1.151-1.784-2.251-2.753-3.269c-0.42-0.439-0.403-1.136,0.037-1.558   c0.442-0.417,1.138-0.405,1.558,0.039c1.031,1.08,2.015,2.249,2.926,3.471c0.364,0.488,0.263,1.179-0.225,1.543   C91.899,221.217,91.668,221.288,91.44,221.288z M67.897,216.19c-0.591,0-1.076-0.374-1.094-0.966   c-0.001-0.019-0.003-0.235-0.003-0.254c0-1.818,0.596-3.413,1.724-4.592c0.42-0.441,1.117-0.456,1.558-0.034   c0.439,0.42,0.455,1.117,0.034,1.558c-0.727,0.762-1.113,1.829-1.113,3.088c0,0.603-0.481,1.19-1.082,1.201   C67.912,216.19,67.905,216.19,67.897,216.19z M105.501,215.572c-0.253,0-0.507-0.086-0.713-0.263   c-0.464-0.394-0.52-1.089-0.126-1.554c0.777-0.912,1.559-1.883,2.346-2.912l0.358-0.476c0.366-0.491,1.056-0.59,1.543-0.224   c0.487,0.364,0.587,1.054,0.224,1.541l-0.296,0.394c-0.89,1.162-1.696,2.163-2.496,3.105   C106.123,215.441,105.812,215.572,105.501,215.572z M85.351,214.939c-0.24,0-0.483-0.077-0.685-0.241   c-1.151-0.917-2.328-1.707-3.5-2.348c-0.534-0.293-0.73-0.962-0.437-1.496c0.291-0.534,0.961-0.73,1.496-0.437   c1.282,0.702,2.565,1.562,3.814,2.559c0.477,0.379,0.554,1.072,0.175,1.547C85.997,214.797,85.675,214.939,85.351,214.939z    M77.625,210.827c-0.093,0-0.186-0.011-0.28-0.037c-0.983-0.256-1.935-0.387-2.829-0.387l-0.373,0.006   c-0.259,0.013-0.51,0.032-0.75,0.06c-0.609,0.095-1.152-0.357-1.227-0.962c-0.072-0.603,0.358-1.151,0.962-1.224   c0.294-0.037,0.598-0.06,0.915-0.073l0.473-0.011c1.082,0,2.222,0.155,3.386,0.461c0.59,0.153,0.941,0.755,0.788,1.345   C78.56,210.5,78.114,210.827,77.625,210.827z M110.716,208.479c-0.196,0-0.394-0.052-0.572-0.161   c-0.52-0.316-0.684-0.994-0.367-1.515c0.75-1.229,1.434-2.496,2.036-3.77c0.26-0.551,0.917-0.783,1.467-0.525   c0.551,0.26,0.785,0.917,0.526,1.468c-0.635,1.343-1.357,2.681-2.148,3.977C111.45,208.292,111.087,208.479,110.716,208.479z    M114.457,200.519c-0.116,0-0.235-0.017-0.351-0.058c-0.577-0.194-0.888-0.818-0.694-1.394c0.455-1.354,0.829-2.739,1.11-4.121   c0.122-0.596,0.698-0.977,1.3-0.861c0.596,0.123,0.98,0.704,0.859,1.3c-0.299,1.472-0.696,2.946-1.179,4.384   C115.347,200.229,114.918,200.519,114.457,200.519z M116.207,191.909c-0.027,0-0.055,0-0.083-0.002   c-0.607-0.045-1.062-0.575-1.017-1.181c0.063-0.854,0.095-1.707,0.095-2.552c0.001-0.577-0.014-1.147-0.042-1.717   c-0.03-0.607,0.439-1.123,1.046-1.153c0.622-0.077,1.125,0.437,1.156,1.046c0.03,0.605,0.045,1.214,0.044,1.827   c0,0.9-0.033,1.803-0.101,2.714C117.261,191.468,116.778,191.909,116.207,191.909z M115.786,183.129   c-0.529,0-0.996-0.383-1.086-0.921c-0.228-1.375-0.539-2.785-0.926-4.186c-0.162-0.585,0.182-1.192,0.768-1.356   c0.592-0.151,1.194,0.183,1.356,0.77c0.408,1.474,0.736,2.959,0.976,4.409c0.1,0.6-0.307,1.169-0.907,1.268   C115.907,183.125,115.845,183.129,115.786,183.129z M113.464,174.648c-0.443,0-0.862-0.269-1.03-0.71   c-0.501-1.315-1.074-2.651-1.702-3.966c-0.263-0.551-0.029-1.207,0.52-1.47c0.544-0.265,1.206-0.032,1.469,0.519   c0.654,1.371,1.25,2.761,1.773,4.134c0.216,0.568-0.069,1.205-0.638,1.42C113.728,174.624,113.595,174.648,113.464,174.648z    M109.683,166.694c-0.383,0-0.755-0.2-0.959-0.557c-0.719-1.261-1.478-2.496-2.268-3.699c-0.334-0.508-0.193-1.192,0.316-1.526   c0.508-0.334,1.192-0.194,1.526,0.316c0.816,1.242,1.599,2.516,2.341,3.82c0.301,0.527,0.116,1.201-0.412,1.502   C110.056,166.647,109.868,166.694,109.683,166.694z M104.851,159.32c-0.338,0-0.67-0.155-0.887-0.448   c-0.876-1.181-1.773-2.326-2.681-3.432c-0.386-0.469-0.318-1.164,0.152-1.552c0.471-0.385,1.165-0.316,1.55,0.153   c0.932,1.134,1.853,2.307,2.75,3.523c0.363,0.488,0.259,1.177-0.23,1.541C105.308,159.249,105.078,159.32,104.851,159.32z    M99.255,152.496c-0.301,0-0.6-0.123-0.819-0.364c-1.004-1.115-2.006-2.176-2.991-3.181c-0.426-0.435-0.42-1.132,0.015-1.56   c0.433-0.424,1.13-0.42,1.558,0.015c1.007,1.026,2.03,2.113,3.056,3.249c0.407,0.452,0.371,1.149-0.081,1.556   C99.782,152.403,99.518,152.496,99.255,152.496z M93.081,146.195c-0.272,0-0.544-0.099-0.757-0.301   c-1.135-1.074-2.223-2.055-3.235-2.94c-0.458-0.4-0.506-1.098-0.105-1.556c0.399-0.456,1.096-0.501,1.554-0.105   c1.034,0.902,2.143,1.904,3.302,3c0.441,0.417,0.462,1.115,0.043,1.558C93.665,146.078,93.373,146.195,93.081,146.195z    M86.427,140.382c-0.242,0-0.486-0.08-0.69-0.243c-2.105-1.696-3.447-2.636-3.46-2.645c-0.499-0.349-0.621-1.035-0.272-1.534   c0.348-0.501,1.034-0.622,1.533-0.273c0.057,0.041,1.412,0.99,3.581,2.735c0.475,0.383,0.549,1.076,0.168,1.549   C87.068,140.242,86.75,140.382,86.427,140.382z"/>
</g>















</svg>
